<svg xmlns="http://www.w3.org/2000/svg" viewBox="0 0 957 300" width="957" height="300" font-family="Segoe UI, Arial, sans-serif">
<rect width="957" height="300" fill="#ffffff"/>
<line x1="90" y1="98" x2="312" y2="90" stroke="#555" stroke-width="2"/>
<rect x="129" y="88" width="20" height="15" rx="3" fill="#fff8dc" stroke="#ccc"/>
<text x="139" y="99" font-size="10" text-anchor="middle" fill="#333">F0</text>
<rect x="245" y="84" width="35" height="15" rx="3" fill="#fff8dc" stroke="#ccc"/>
<text x="263" y="95" font-size="10" text-anchor="middle" fill="#333">F0/1</text>
<line x1="312" y1="90" x2="553" y2="97" stroke="#555" stroke-width="2"/>
<rect x="347" y="84" width="35" height="15" rx="3" fill="#fff8dc" stroke="#ccc"/>
<text x="365" y="95" font-size="10" text-anchor="middle" fill="#333">G0/1</text>
<rect x="482" y="87" width="35" height="15" rx="3" fill="#fff8dc" stroke="#ccc"/>
<text x="500" y="98" font-size="10" text-anchor="middle" fill="#333">G0/0</text>
<line x1="553" y1="97" x2="868" y2="91" stroke="#555" stroke-width="2"/>
<rect x="605" y="88" width="35" height="15" rx="3" fill="#fff8dc" stroke="#ccc"/>
<text x="622" y="99" font-size="10" text-anchor="middle" fill="#333">G0/1</text>
<rect x="788" y="84" width="20" height="15" rx="3" fill="#fff8dc" stroke="#ccc"/>
<text x="798" y="95" font-size="10" text-anchor="middle" fill="#333">F0</text>
<rect x="70" y="78" width="40" height="40" rx="6" fill="#7f7f7f" stroke="#123" stroke-width="1.5"/>
<text x="90" y="102" font-size="11" font-weight="bold" text-anchor="middle" fill="#fff">PC</text>
<text x="90" y="136" font-size="12" font-weight="600" text-anchor="middle" fill="#111">PC1</text>
<text x="90" y="150" font-size="10" text-anchor="middle" fill="#444">192.168.10.10</text>
<rect x="282" y="74" width="60" height="32" rx="4" fill="#2ca02c" stroke="#123" stroke-width="1.5"/>
<text x="312" y="94" font-size="11" font-weight="bold" text-anchor="middle" fill="#fff">SW</text>
<text x="312" y="128" font-size="12" font-weight="600" text-anchor="middle" fill="#111">SW</text>
<circle cx="553" cy="97" r="22" fill="#1f77b4" stroke="#123" stroke-width="1.5"/>
<text x="553" y="101" font-size="11" font-weight="bold" text-anchor="middle" fill="#fff">R</text>
<text x="553" y="135" font-size="12" font-weight="600" text-anchor="middle" fill="#111">NAT-R</text>
<text x="553" y="149" font-size="10" text-anchor="middle" fill="#444">192.168.10.1, 203.0.10.1</text>
<rect x="848" y="71" width="40" height="40" rx="6" fill="#d62728" stroke="#123" stroke-width="1.5"/>
<text x="868" y="95" font-size="11" font-weight="bold" text-anchor="middle" fill="#fff">SRV</text>
<text x="868" y="129" font-size="12" font-weight="600" text-anchor="middle" fill="#111">FILE SERVER</text>
<text x="868" y="143" font-size="10" text-anchor="middle" fill="#444">203.0.10.10</text>
</svg>