<svg xmlns="http://www.w3.org/2000/svg" viewBox="0 0 1848 907" width="1848" height="907" font-family="Segoe UI, Arial, sans-serif">
<rect width="1848" height="907" fill="#ffffff"/>
<line x1="662" y1="496" x2="651" y2="240" stroke="#555" stroke-width="2" stroke-dasharray="6 4"/>
<rect x="635" y="432" width="49" height="15" rx="3" fill="#fff8dc" stroke="#ccc"/>
<text x="660" y="443" font-size="10" text-anchor="middle" fill="#333">S0/0/0</text>
<rect x="629" y="288" width="49" height="15" rx="3" fill="#fff8dc" stroke="#ccc"/>
<text x="653" y="299" font-size="10" text-anchor="middle" fill="#333">S0/0/0</text>
<line x1="651" y1="240" x2="1146" y2="199" stroke="#555" stroke-width="2" stroke-dasharray="6 4"/>
<rect x="735" y="223" width="49" height="15" rx="3" fill="#fff8dc" stroke="#ccc"/>
<text x="760" y="234" font-size="10" text-anchor="middle" fill="#333">S0/0/1</text>
<rect x="1012" y="200" width="49" height="15" rx="3" fill="#fff8dc" stroke="#ccc"/>
<text x="1037" y="211" font-size="10" text-anchor="middle" fill="#333">S0/0/1</text>
<line x1="278" y1="193" x2="492" y2="271" stroke="#555" stroke-width="2"/>
<rect x="307" y="202" width="35" height="15" rx="3" fill="#fff8dc" stroke="#ccc"/>
<text x="325" y="213" font-size="10" text-anchor="middle" fill="#333">F0/1</text>
<rect x="427" y="246" width="35" height="15" rx="3" fill="#fff8dc" stroke="#ccc"/>
<text x="444" y="257" font-size="10" text-anchor="middle" fill="#333">F0/1</text>
<line x1="492" y1="271" x2="651" y2="240" stroke="#555" stroke-width="2"/>
<rect x="509" y="256" width="35" height="15" rx="3" fill="#fff8dc" stroke="#ccc"/>
<text x="527" y="267" font-size="10" text-anchor="middle" fill="#333">G0/1</text>
<rect x="599" y="239" width="35" height="15" rx="3" fill="#fff8dc" stroke="#ccc"/>
<text x="616" y="250" font-size="10" text-anchor="middle" fill="#333">G0/1</text>
<line x1="278" y1="193" x2="492" y2="271" stroke="#555" stroke-width="2"/>
<rect x="307" y="202" width="35" height="15" rx="3" fill="#fff8dc" stroke="#ccc"/>
<text x="325" y="213" font-size="10" text-anchor="middle" fill="#333">F0/2</text>
<rect x="427" y="246" width="35" height="15" rx="3" fill="#fff8dc" stroke="#ccc"/>
<text x="444" y="257" font-size="10" text-anchor="middle" fill="#333">F0/2</text>
<line x1="302" y1="314" x2="492" y2="271" stroke="#555" stroke-width="2"/>
<rect x="326" y="297" width="35" height="15" rx="3" fill="#fff8dc" stroke="#ccc"/>
<text x="343" y="308" font-size="10" text-anchor="middle" fill="#333">F0/3</text>
<rect x="432" y="272" width="35" height="15" rx="3" fill="#fff8dc" stroke="#ccc"/>
<text x="450" y="283" font-size="10" text-anchor="middle" fill="#333">F0/3</text>
<line x1="302" y1="314" x2="492" y2="271" stroke="#555" stroke-width="2"/>
<rect x="326" y="297" width="35" height="15" rx="3" fill="#fff8dc" stroke="#ccc"/>
<text x="343" y="308" font-size="10" text-anchor="middle" fill="#333">F0/4</text>
<rect x="432" y="272" width="35" height="15" rx="3" fill="#fff8dc" stroke="#ccc"/>
<text x="450" y="283" font-size="10" text-anchor="middle" fill="#333">F0/4</text>
<line x1="90" y1="182" x2="278" y2="193" stroke="#555" stroke-width="2"/>
<rect x="121" y="176" width="20" height="15" rx="3" fill="#fff8dc" stroke="#ccc"/>
<text x="131" y="187" font-size="10" text-anchor="middle" fill="#333">F0</text>
<rect x="219" y="183" width="35" height="15" rx="3" fill="#fff8dc" stroke="#ccc"/>
<text x="236" y="194" font-size="10" text-anchor="middle" fill="#333">F0/3</text>
<line x1="110" y1="107" x2="278" y2="193" stroke="#555" stroke-width="2"/>
<rect x="137" y="118" width="20" height="15" rx="3" fill="#fff8dc" stroke="#ccc"/>
<text x="147" y="129" font-size="10" text-anchor="middle" fill="#333">F0</text>
<rect x="223" y="166" width="35" height="15" rx="3" fill="#fff8dc" stroke="#ccc"/>
<text x="241" y="177" font-size="10" text-anchor="middle" fill="#333">F0/4</text>
<line x1="116" y1="377" x2="302" y2="314" stroke="#555" stroke-width="2"/>
<rect x="146" y="355" width="20" height="15" rx="3" fill="#fff8dc" stroke="#ccc"/>
<text x="156" y="366" font-size="10" text-anchor="middle" fill="#333">F0</text>
<rect x="243" y="320" width="35" height="15" rx="3" fill="#fff8dc" stroke="#ccc"/>
<text x="261" y="331" font-size="10" text-anchor="middle" fill="#333">F0/6</text>
<line x1="651" y1="240" x2="804" y2="101" stroke="#555" stroke-width="2"/>
<rect x="667" y="201" width="35" height="15" rx="3" fill="#fff8dc" stroke="#ccc"/>
<text x="685" y="212" font-size="10" text-anchor="middle" fill="#333">G0/2</text>
<rect x="753" y="124" width="35" height="15" rx="3" fill="#fff8dc" stroke="#ccc"/>
<text x="770" y="135" font-size="10" text-anchor="middle" fill="#333">G0/2</text>
<line x1="486" y1="591" x2="662" y2="496" stroke="#555" stroke-width="2"/>
<rect x="507" y="562" width="35" height="15" rx="3" fill="#fff8dc" stroke="#ccc"/>
<text x="524" y="573" font-size="10" text-anchor="middle" fill="#333">G0/1</text>
<rect x="606" y="509" width="35" height="15" rx="3" fill="#fff8dc" stroke="#ccc"/>
<text x="623" y="520" font-size="10" text-anchor="middle" fill="#333">G0/1</text>
<line x1="320" y1="517" x2="486" y2="591" stroke="#555" stroke-width="2"/>
<rect x="339" y="525" width="35" height="15" rx="3" fill="#fff8dc" stroke="#ccc"/>
<text x="357" y="536" font-size="10" text-anchor="middle" fill="#333">F0/1</text>
<rect x="432" y="567" width="35" height="15" rx="3" fill="#fff8dc" stroke="#ccc"/>
<text x="449" y="578" font-size="10" text-anchor="middle" fill="#333">F0/1</text>
<line x1="320" y1="517" x2="486" y2="591" stroke="#555" stroke-width="2"/>
<rect x="339" y="525" width="35" height="15" rx="3" fill="#fff8dc" stroke="#ccc"/>
<text x="357" y="536" font-size="10" text-anchor="middle" fill="#333">F0/2</text>
<rect x="432" y="567" width="35" height="15" rx="3" fill="#fff8dc" stroke="#ccc"/>
<text x="449" y="578" font-size="10" text-anchor="middle" fill="#333">F0/2</text>
<line x1="320" y1="517" x2="316" y2="732" stroke="#555" stroke-width="2"/>
<rect x="302" y="556" width="35" height="15" rx="3" fill="#fff8dc" stroke="#ccc"/>
<text x="320" y="567" font-size="10" text-anchor="middle" fill="#333">F0/8</text>
<rect x="300" y="677" width="35" height="15" rx="3" fill="#fff8dc" stroke="#ccc"/>
<text x="317" y="688" font-size="10" text-anchor="middle" fill="#333">F0/8</text>
<line x1="93" y1="514" x2="320" y2="517" stroke="#555" stroke-width="2"/>
<rect x="133" y="507" width="20" height="15" rx="3" fill="#fff8dc" stroke="#ccc"/>
<text x="143" y="518" font-size="10" text-anchor="middle" fill="#333">F0</text>
<rect x="249" y="508" width="42" height="15" rx="3" fill="#fff8dc" stroke="#ccc"/>
<text x="270" y="519" font-size="10" text-anchor="middle" fill="#333">F0/15</text>
<line x1="105" y1="589" x2="320" y2="517" stroke="#555" stroke-width="2"/>
<rect x="142" y="565" width="20" height="15" rx="3" fill="#fff8dc" stroke="#ccc"/>
<text x="152" y="576" font-size="10" text-anchor="middle" fill="#333">F0</text>
<rect x="252" y="525" width="42" height="15" rx="3" fill="#fff8dc" stroke="#ccc"/>
<text x="273" y="536" font-size="10" text-anchor="middle" fill="#333">F0/16</text>
<line x1="120" y1="777" x2="316" y2="732" stroke="#555" stroke-width="2"/>
<rect x="153" y="759" width="20" height="15" rx="3" fill="#fff8dc" stroke="#ccc"/>
<text x="164" y="770" font-size="10" text-anchor="middle" fill="#333">F0</text>
<rect x="252" y="734" width="42" height="15" rx="3" fill="#fff8dc" stroke="#ccc"/>
<text x="273" y="745" font-size="10" text-anchor="middle" fill="#333">F0/15</text>
<line x1="94" y1="260" x2="278" y2="193" stroke="#555" stroke-width="2"/>
<rect x="124" y="237" width="20" height="15" rx="3" fill="#fff8dc" stroke="#ccc"/>
<text x="134" y="248" font-size="10" text-anchor="middle" fill="#333">F0</text>
<rect x="220" y="200" width="35" height="15" rx="3" fill="#fff8dc" stroke="#ccc"/>
<text x="237" y="211" font-size="10" text-anchor="middle" fill="#333">F0/5</text>
<line x1="102" y1="665" x2="320" y2="517" stroke="#555" stroke-width="2"/>
<rect x="140" y="624" width="20" height="15" rx="3" fill="#fff8dc" stroke="#ccc"/>
<text x="150" y="635" font-size="10" text-anchor="middle" fill="#333">F0</text>
<rect x="251" y="542" width="42" height="15" rx="3" fill="#fff8dc" stroke="#ccc"/>
<text x="272" y="553" font-size="10" text-anchor="middle" fill="#333">F0/17</text>
<line x1="1146" y1="199" x2="1374" y2="240" stroke="#555" stroke-width="2"/>
<rect x="1179" y="200" width="35" height="15" rx="3" fill="#fff8dc" stroke="#ccc"/>
<text x="1196" y="211" font-size="10" text-anchor="middle" fill="#333">G0/1</text>
<rect x="1307" y="223" width="35" height="15" rx="3" fill="#fff8dc" stroke="#ccc"/>
<text x="1324" y="234" font-size="10" text-anchor="middle" fill="#333">G0/1</text>
<line x1="1374" y1="240" x2="1598" y2="90" stroke="#555" stroke-width="2"/>
<rect x="1406" y="199" width="35" height="15" rx="3" fill="#fff8dc" stroke="#ccc"/>
<text x="1424" y="210" font-size="10" text-anchor="middle" fill="#333">F0/1</text>
<rect x="1539" y="115" width="20" height="15" rx="3" fill="#fff8dc" stroke="#ccc"/>
<text x="1549" y="126" font-size="10" text-anchor="middle" fill="#333">F0</text>
<line x1="1374" y1="240" x2="1602" y2="178" stroke="#555" stroke-width="2"/>
<rect x="1407" y="218" width="35" height="15" rx="3" fill="#fff8dc" stroke="#ccc"/>
<text x="1425" y="229" font-size="10" text-anchor="middle" fill="#333">F0/2</text>
<rect x="1542" y="184" width="20" height="15" rx="3" fill="#fff8dc" stroke="#ccc"/>
<text x="1552" y="195" font-size="10" text-anchor="middle" fill="#333">F0</text>
<line x1="1374" y1="240" x2="1592" y2="270" stroke="#555" stroke-width="2"/>
<rect x="1405" y="239" width="35" height="15" rx="3" fill="#fff8dc" stroke="#ccc"/>
<text x="1422" y="250" font-size="10" text-anchor="middle" fill="#333">F0/3</text>
<rect x="1534" y="255" width="20" height="15" rx="3" fill="#fff8dc" stroke="#ccc"/>
<text x="1544" y="266" font-size="10" text-anchor="middle" fill="#333">F0</text>
<line x1="1374" y1="240" x2="1584" y2="374" stroke="#555" stroke-width="2"/>
<rect x="1403" y="261" width="35" height="15" rx="3" fill="#fff8dc" stroke="#ccc"/>
<text x="1420" y="272" font-size="10" text-anchor="middle" fill="#333">F0/4</text>
<rect x="1527" y="337" width="20" height="15" rx="3" fill="#fff8dc" stroke="#ccc"/>
<text x="1538" y="348" font-size="10" text-anchor="middle" fill="#333">F0</text>
<line x1="316" y1="732" x2="320" y2="517" stroke="#555" stroke-width="2"/>
<rect x="300" y="677" width="35" height="15" rx="3" fill="#fff8dc" stroke="#ccc"/>
<text x="317" y="688" font-size="10" text-anchor="middle" fill="#333">F0/7</text>
<rect x="302" y="556" width="35" height="15" rx="3" fill="#fff8dc" stroke="#ccc"/>
<text x="320" y="567" font-size="10" text-anchor="middle" fill="#333">F0/7</text>
<line x1="486" y1="591" x2="316" y2="732" stroke="#555" stroke-width="2"/>
<rect x="431" y="614" width="35" height="15" rx="3" fill="#fff8dc" stroke="#ccc"/>
<text x="448" y="625" font-size="10" text-anchor="middle" fill="#333">F0/3</text>
<rect x="336" y="693" width="35" height="15" rx="3" fill="#fff8dc" stroke="#ccc"/>
<text x="354" y="704" font-size="10" text-anchor="middle" fill="#333">F0/2</text>
<line x1="486" y1="591" x2="316" y2="732" stroke="#555" stroke-width="2"/>
<rect x="431" y="614" width="35" height="15" rx="3" fill="#fff8dc" stroke="#ccc"/>
<text x="448" y="625" font-size="10" text-anchor="middle" fill="#333">F0/4</text>
<rect x="336" y="693" width="35" height="15" rx="3" fill="#fff8dc" stroke="#ccc"/>
<text x="354" y="704" font-size="10" text-anchor="middle" fill="#333">F0/1</text>
<line x1="1758" y1="580" x2="1490" y2="709" stroke="#555" stroke-width="2"/>
<rect x="1689" y="600" width="20" height="15" rx="3" fill="#fff8dc" stroke="#ccc"/>
<text x="1699" y="611" font-size="10" text-anchor="middle" fill="#333">F0</text>
<rect x="1528" y="673" width="42" height="15" rx="3" fill="#fff8dc" stroke="#ccc"/>
<text x="1549" y="684" font-size="10" text-anchor="middle" fill="#333">F0/17</text>
<line x1="1490" y1="709" x2="1290" y2="616" stroke="#555" stroke-width="2"/>
<rect x="1428" y="681" width="35" height="15" rx="3" fill="#fff8dc" stroke="#ccc"/>
<text x="1446" y="692" font-size="10" text-anchor="middle" fill="#333">F0/1</text>
<rect x="1317" y="628" width="35" height="15" rx="3" fill="#fff8dc" stroke="#ccc"/>
<text x="1334" y="639" font-size="10" text-anchor="middle" fill="#333">F0/1</text>
<line x1="1490" y1="709" x2="1290" y2="616" stroke="#555" stroke-width="2"/>
<rect x="1428" y="681" width="35" height="15" rx="3" fill="#fff8dc" stroke="#ccc"/>
<text x="1446" y="692" font-size="10" text-anchor="middle" fill="#333">F0/2</text>
<rect x="1317" y="628" width="35" height="15" rx="3" fill="#fff8dc" stroke="#ccc"/>
<text x="1334" y="639" font-size="10" text-anchor="middle" fill="#333">F0/2</text>
<line x1="1290" y1="616" x2="1498" y2="524" stroke="#555" stroke-width="2"/>
<rect x="1319" y="588" width="35" height="15" rx="3" fill="#fff8dc" stroke="#ccc"/>
<text x="1336" y="599" font-size="10" text-anchor="middle" fill="#333">F0/3</text>
<rect x="1435" y="536" width="35" height="15" rx="3" fill="#fff8dc" stroke="#ccc"/>
<text x="1452" y="547" font-size="10" text-anchor="middle" fill="#333">F0/2</text>
<line x1="1290" y1="616" x2="1498" y2="524" stroke="#555" stroke-width="2"/>
<rect x="1319" y="588" width="35" height="15" rx="3" fill="#fff8dc" stroke="#ccc"/>
<text x="1336" y="599" font-size="10" text-anchor="middle" fill="#333">F0/4</text>
<rect x="1435" y="536" width="35" height="15" rx="3" fill="#fff8dc" stroke="#ccc"/>
<text x="1452" y="547" font-size="10" text-anchor="middle" fill="#333">F0/1</text>
<line x1="1750" y1="745" x2="1490" y2="709" stroke="#555" stroke-width="2"/>
<rect x="1682" y="729" width="20" height="15" rx="3" fill="#fff8dc" stroke="#ccc"/>
<text x="1693" y="740" font-size="10" text-anchor="middle" fill="#333">F0</text>
<rect x="1526" y="709" width="42" height="15" rx="3" fill="#fff8dc" stroke="#ccc"/>
<text x="1547" y="720" font-size="10" text-anchor="middle" fill="#333">F0/15</text>
<line x1="1758" y1="674" x2="1490" y2="709" stroke="#555" stroke-width="2"/>
<rect x="1689" y="674" width="20" height="15" rx="3" fill="#fff8dc" stroke="#ccc"/>
<text x="1699" y="685" font-size="10" text-anchor="middle" fill="#333">F0</text>
<rect x="1528" y="693" width="42" height="15" rx="3" fill="#fff8dc" stroke="#ccc"/>
<text x="1549" y="704" font-size="10" text-anchor="middle" fill="#333">F0/16</text>
<line x1="1498" y1="524" x2="1490" y2="709" stroke="#555" stroke-width="2"/>
<rect x="1478" y="557" width="35" height="15" rx="3" fill="#fff8dc" stroke="#ccc"/>
<text x="1496" y="568" font-size="10" text-anchor="middle" fill="#333">F0/7</text>
<rect x="1474" y="660" width="35" height="15" rx="3" fill="#fff8dc" stroke="#ccc"/>
<text x="1491" y="671" font-size="10" text-anchor="middle" fill="#333">F0/7</text>
<line x1="1490" y1="709" x2="1498" y2="524" stroke="#555" stroke-width="2"/>
<rect x="1474" y="660" width="35" height="15" rx="3" fill="#fff8dc" stroke="#ccc"/>
<text x="1491" y="671" font-size="10" text-anchor="middle" fill="#333">F0/8</text>
<rect x="1478" y="557" width="35" height="15" rx="3" fill="#fff8dc" stroke="#ccc"/>
<text x="1496" y="568" font-size="10" text-anchor="middle" fill="#333">F0/8</text>
<line x1="1746" y1="511" x2="1498" y2="524" stroke="#555" stroke-width="2"/>
<rect x="1682" y="506" width="20" height="15" rx="3" fill="#fff8dc" stroke="#ccc"/>
<text x="1692" y="517" font-size="10" text-anchor="middle" fill="#333">F0</text>
<rect x="1531" y="513" width="42" height="15" rx="3" fill="#fff8dc" stroke="#ccc"/>
<text x="1552" y="524" font-size="10" text-anchor="middle" fill="#333">F0/15</text>
<line x1="1290" y1="616" x2="1110" y2="567" stroke="#555" stroke-width="2"/>
<rect x="1233" y="597" width="35" height="15" rx="3" fill="#fff8dc" stroke="#ccc"/>
<text x="1251" y="608" font-size="10" text-anchor="middle" fill="#333">G0/2</text>
<rect x="1132" y="570" width="35" height="15" rx="3" fill="#fff8dc" stroke="#ccc"/>
<text x="1150" y="581" font-size="10" text-anchor="middle" fill="#333">G0/1</text>
<line x1="1146" y1="199" x2="1110" y2="567" stroke="#555" stroke-width="2" stroke-dasharray="6 4"/>
<rect x="1113" y="272" width="49" height="15" rx="3" fill="#fff8dc" stroke="#ccc"/>
<text x="1138" y="283" font-size="10" text-anchor="middle" fill="#333">S0/0/0</text>
<rect x="1093" y="478" width="49" height="15" rx="3" fill="#fff8dc" stroke="#ccc"/>
<text x="1118" y="489" font-size="10" text-anchor="middle" fill="#333">S0/0/0</text>
<line x1="662" y1="496" x2="1110" y2="567" stroke="#555" stroke-width="2" stroke-dasharray="6 4"/>
<rect x="736" y="504" width="49" height="15" rx="3" fill="#fff8dc" stroke="#ccc"/>
<text x="761" y="515" font-size="10" text-anchor="middle" fill="#333">S0/1/1</text>
<rect x="987" y="543" width="49" height="15" rx="3" fill="#fff8dc" stroke="#ccc"/>
<text x="1011" y="554" font-size="10" text-anchor="middle" fill="#333">S0/1/1</text>
<line x1="651" y1="240" x2="1110" y2="567" stroke="#555" stroke-width="2" stroke-dasharray="6 4"/>
<rect x="727" y="304" width="49" height="15" rx="3" fill="#fff8dc" stroke="#ccc"/>
<text x="752" y="315" font-size="10" text-anchor="middle" fill="#333">S0/1/0</text>
<rect x="984" y="487" width="49" height="15" rx="3" fill="#fff8dc" stroke="#ccc"/>
<text x="1009" y="498" font-size="10" text-anchor="middle" fill="#333">S0/1/0</text>
<circle cx="651" cy="240" r="22" fill="#1f77b4" stroke="#123" stroke-width="1.5"/>
<text x="651" y="244" font-size="11" font-weight="bold" text-anchor="middle" fill="#fff">R</text>
<text x="651" y="278" font-size="12" font-weight="600" text-anchor="middle" fill="#111">R-HQ</text>
<text x="651" y="292" font-size="10" text-anchor="middle" fill="#444">10.10.10.1, 10.10.20.1, 10.10.30.1</text>
<circle cx="1146" cy="199" r="22" fill="#1f77b4" stroke="#123" stroke-width="1.5"/>
<text x="1146" y="203" font-size="11" font-weight="bold" text-anchor="middle" fill="#fff">R</text>
<text x="1146" y="237" font-size="12" font-weight="600" text-anchor="middle" fill="#111">R-BORAMA</text>
<text x="1146" y="251" font-size="10" text-anchor="middle" fill="#444">10.20.10.1, 10.20.20.1, 10.20.30.1</text>
<circle cx="662" cy="496" r="22" fill="#1f77b4" stroke="#123" stroke-width="1.5"/>
<text x="662" y="500" font-size="11" font-weight="bold" text-anchor="middle" fill="#fff">R</text>
<text x="662" y="534" font-size="12" font-weight="600" text-anchor="middle" fill="#111">R-BURCO</text>
<text x="662" y="548" font-size="10" text-anchor="middle" fill="#444">10.30.10.1, 10.30.20.1, 10.30.30.1</text>
<circle cx="1110" cy="567" r="22" fill="#1f77b4" stroke="#123" stroke-width="1.5"/>
<text x="1110" y="571" font-size="11" font-weight="bold" text-anchor="middle" fill="#fff">R</text>
<text x="1110" y="605" font-size="12" font-weight="600" text-anchor="middle" fill="#111">Router1(1)(1)</text>
<text x="1110" y="619" font-size="10" text-anchor="middle" fill="#444">10.40.10.1, 10.40.20.1, 10.40.30.1</text>
<circle cx="804" cy="101" r="22" fill="#1f77b4" stroke="#123" stroke-width="1.5"/>
<text x="804" y="105" font-size="11" font-weight="bold" text-anchor="middle" fill="#fff">R</text>
<text x="804" y="139" font-size="12" font-weight="600" text-anchor="middle" fill="#111">TELESOM ISP</text>
<text x="804" y="153" font-size="10" text-anchor="middle" fill="#444">203.0.113.1</text>
<rect x="272" y="298" width="60" height="32" rx="4" fill="#2ca02c" stroke="#123" stroke-width="1.5"/>
<text x="302" y="318" font-size="11" font-weight="bold" text-anchor="middle" fill="#fff">SW</text>
<text x="302" y="352" font-size="12" font-weight="600" text-anchor="middle" fill="#111">SW-HQ-ACC2</text>
<rect x="70" y="162" width="40" height="40" rx="6" fill="#7f7f7f" stroke="#123" stroke-width="1.5"/>
<text x="90" y="186" font-size="11" font-weight="bold" text-anchor="middle" fill="#fff">PC</text>
<text x="90" y="220" font-size="12" font-weight="600" text-anchor="middle" fill="#111">VLN 20 FCTY PC-1</text>
<text x="90" y="234" font-size="10" text-anchor="middle" fill="#444">dhcp</text>
<rect x="90" y="87" width="40" height="40" rx="6" fill="#7f7f7f" stroke="#123" stroke-width="1.5"/>
<text x="110" y="111" font-size="11" font-weight="bold" text-anchor="middle" fill="#fff">PC</text>
<text x="110" y="145" font-size="12" font-weight="600" text-anchor="middle" fill="#111">VLN 10 ADMN PC-1</text>
<text x="110" y="159" font-size="10" text-anchor="middle" fill="#444">dhcp</text>
<rect x="74" y="240" width="40" height="40" rx="6" fill="#7f7f7f" stroke="#123" stroke-width="1.5"/>
<text x="94" y="264" font-size="11" font-weight="bold" text-anchor="middle" fill="#fff">PC</text>
<text x="94" y="298" font-size="12" font-weight="600" text-anchor="middle" fill="#111">VLN 30 STDNTS PC-1</text>
<text x="94" y="312" font-size="10" text-anchor="middle" fill="#444">dhcp</text>
<rect x="96" y="357" width="40" height="40" rx="6" fill="#d62728" stroke="#123" stroke-width="1.5"/>
<text x="116" y="381" font-size="11" font-weight="bold" text-anchor="middle" fill="#fff">SRV</text>
<text x="116" y="415" font-size="12" font-weight="600" text-anchor="middle" fill="#111">VLAN 40 Server PC-1</text>
<text x="116" y="429" font-size="10" text-anchor="middle" fill="#444">10.10.40.10</text>
<rect x="248" y="177" width="60" height="32" rx="4" fill="#2ca02c" stroke="#123" stroke-width="1.5"/>
<text x="278" y="197" font-size="11" font-weight="bold" text-anchor="middle" fill="#fff">SW</text>
<text x="278" y="231" font-size="12" font-weight="600" text-anchor="middle" fill="#111">SW-HQ-ACC1</text>
<rect x="462" y="255" width="60" height="32" rx="4" fill="#2ca02c" stroke="#123" stroke-width="1.5"/>
<text x="492" y="275" font-size="11" font-weight="bold" text-anchor="middle" fill="#fff">SW</text>
<text x="492" y="309" font-size="12" font-weight="600" text-anchor="middle" fill="#111">MAIN-SWITCH</text>
<text x="492" y="323" font-size="10" text-anchor="middle" fill="#444">10.10.99.2</text>
<rect x="456" y="575" width="60" height="32" rx="4" fill="#2ca02c" stroke="#123" stroke-width="1.5"/>
<text x="486" y="595" font-size="11" font-weight="bold" text-anchor="middle" fill="#fff">SW</text>
<text x="486" y="629" font-size="12" font-weight="600" text-anchor="middle" fill="#111">BURCO-SW</text>
<text x="486" y="643" font-size="10" text-anchor="middle" fill="#444">10.30.99.2</text>
<rect x="290" y="501" width="60" height="32" rx="4" fill="#2ca02c" stroke="#123" stroke-width="1.5"/>
<text x="320" y="521" font-size="11" font-weight="bold" text-anchor="middle" fill="#fff">SW</text>
<text x="320" y="555" font-size="12" font-weight="600" text-anchor="middle" fill="#111">SW-BRCO-ACC1</text>
<rect x="286" y="716" width="60" height="32" rx="4" fill="#2ca02c" stroke="#123" stroke-width="1.5"/>
<text x="316" y="736" font-size="11" font-weight="bold" text-anchor="middle" fill="#fff">SW</text>
<text x="316" y="770" font-size="12" font-weight="600" text-anchor="middle" fill="#111">SW-BRCO-ACCS2</text>
<rect x="73" y="494" width="40" height="40" rx="6" fill="#7f7f7f" stroke="#123" stroke-width="1.5"/>
<text x="93" y="518" font-size="11" font-weight="bold" text-anchor="middle" fill="#fff">PC</text>
<text x="93" y="552" font-size="12" font-weight="600" text-anchor="middle" fill="#111">VL 10 ADMN</text>
<text x="93" y="566" font-size="10" text-anchor="middle" fill="#444">10.30.10.21</text>
<rect x="85" y="569" width="40" height="40" rx="6" fill="#7f7f7f" stroke="#123" stroke-width="1.5"/>
<text x="105" y="593" font-size="11" font-weight="bold" text-anchor="middle" fill="#fff">PC</text>
<text x="105" y="627" font-size="12" font-weight="600" text-anchor="middle" fill="#111">VLN 20 FCLTY</text>
<text x="105" y="641" font-size="10" text-anchor="middle" fill="#444">10.30.20.21</text>
<rect x="100" y="757" width="40" height="40" rx="6" fill="#d62728" stroke="#123" stroke-width="1.5"/>
<text x="120" y="781" font-size="11" font-weight="bold" text-anchor="middle" fill="#fff">SRV</text>
<text x="120" y="815" font-size="12" font-weight="600" text-anchor="middle" fill="#111">VLN 40 SERVS</text>
<text x="120" y="829" font-size="10" text-anchor="middle" fill="#444">10.30.40.10</text>
<rect x="82" y="645" width="40" height="40" rx="6" fill="#7f7f7f" stroke="#123" stroke-width="1.5"/>
<text x="102" y="669" font-size="11" font-weight="bold" text-anchor="middle" fill="#fff">PC</text>
<text x="102" y="703" font-size="12" font-weight="600" text-anchor="middle" fill="#111">VLN 30 STDNTS</text>
<text x="102" y="717" font-size="10" text-anchor="middle" fill="#444">10.30.30.21</text>
<rect x="1344" y="224" width="60" height="32" rx="4" fill="#2ca02c" stroke="#123" stroke-width="1.5"/>
<text x="1374" y="244" font-size="11" font-weight="bold" text-anchor="middle" fill="#fff">SW</text>
<text x="1374" y="278" font-size="12" font-weight="600" text-anchor="middle" fill="#111">BRMA-SW</text>
<rect x="1578" y="70" width="40" height="40" rx="6" fill="#7f7f7f" stroke="#123" stroke-width="1.5"/>
<text x="1598" y="94" font-size="11" font-weight="bold" text-anchor="middle" fill="#fff">PC</text>
<text x="1598" y="128" font-size="12" font-weight="600" text-anchor="middle" fill="#111">VLN 10 ADMN PC-2</text>
<text x="1598" y="142" font-size="10" text-anchor="middle" fill="#444">dhcp</text>
<rect x="1582" y="158" width="40" height="40" rx="6" fill="#7f7f7f" stroke="#123" stroke-width="1.5"/>
<text x="1602" y="182" font-size="11" font-weight="bold" text-anchor="middle" fill="#fff">PC</text>
<text x="1602" y="216" font-size="12" font-weight="600" text-anchor="middle" fill="#111">VLN 20 FCTY PC-2</text>
<text x="1602" y="230" font-size="10" text-anchor="middle" fill="#444">dhcp</text>
<rect x="1572" y="250" width="40" height="40" rx="6" fill="#7f7f7f" stroke="#123" stroke-width="1.5"/>
<text x="1592" y="274" font-size="11" font-weight="bold" text-anchor="middle" fill="#fff">PC</text>
<text x="1592" y="308" font-size="12" font-weight="600" text-anchor="middle" fill="#111">VLN 30 STDNTS PC-2</text>
<text x="1592" y="322" font-size="10" text-anchor="middle" fill="#444">dhcp</text>
<rect x="1564" y="354" width="40" height="40" rx="6" fill="#d62728" stroke="#123" stroke-width="1.5"/>
<text x="1584" y="378" font-size="11" font-weight="bold" text-anchor="middle" fill="#fff">SRV</text>
<text x="1584" y="412" font-size="12" font-weight="600" text-anchor="middle" fill="#111">VLN 40 SRVR PC-2</text>
<text x="1584" y="426" font-size="10" text-anchor="middle" fill="#444">10.20.40.10</text>
<rect x="1738" y="560" width="40" height="40" rx="6" fill="#7f7f7f" stroke="#123" stroke-width="1.5"/>
<text x="1758" y="584" font-size="11" font-weight="bold" text-anchor="middle" fill="#fff">PC</text>
<text x="1758" y="618" font-size="12" font-weight="600" text-anchor="middle" fill="#111">VLN 30 STDNTS(1)</text>
<text x="1758" y="632" font-size="10" text-anchor="middle" fill="#444">10.40.30.21</text>
<rect x="1260" y="600" width="60" height="32" rx="4" fill="#2ca02c" stroke="#123" stroke-width="1.5"/>
<text x="1290" y="620" font-size="11" font-weight="bold" text-anchor="middle" fill="#fff">SW</text>
<text x="1290" y="654" font-size="12" font-weight="600" text-anchor="middle" fill="#111">BERBERA-SW(1)</text>
<rect x="1460" y="693" width="60" height="32" rx="4" fill="#2ca02c" stroke="#123" stroke-width="1.5"/>
<text x="1490" y="713" font-size="11" font-weight="bold" text-anchor="middle" fill="#fff">SW</text>
<text x="1490" y="747" font-size="12" font-weight="600" text-anchor="middle" fill="#111">SW-BERBERA-ACC2</text>
<rect x="1468" y="508" width="60" height="32" rx="4" fill="#2ca02c" stroke="#123" stroke-width="1.5"/>
<text x="1498" y="528" font-size="11" font-weight="bold" text-anchor="middle" fill="#fff">SW</text>
<text x="1498" y="562" font-size="12" font-weight="600" text-anchor="middle" fill="#111">SW-BERBERA-ACC1</text>
<rect x="1726" y="491" width="40" height="40" rx="6" fill="#d62728" stroke="#123" stroke-width="1.5"/>
<text x="1746" y="515" font-size="11" font-weight="bold" text-anchor="middle" fill="#fff">SRV</text>
<text x="1746" y="549" font-size="12" font-weight="600" text-anchor="middle" fill="#111">VLN 40 SERVS(1)</text>
<text x="1746" y="563" font-size="10" text-anchor="middle" fill="#444">10.40.40.10</text>
<rect x="1730" y="725" width="40" height="40" rx="6" fill="#7f7f7f" stroke="#123" stroke-width="1.5"/>
<text x="1750" y="749" font-size="11" font-weight="bold" text-anchor="middle" fill="#fff">PC</text>
<text x="1750" y="783" font-size="12" font-weight="600" text-anchor="middle" fill="#111">VL 10 ADMN(1)</text>
<text x="1750" y="797" font-size="10" text-anchor="middle" fill="#444">10.40.10.21</text>
<rect x="1738" y="654" width="40" height="40" rx="6" fill="#7f7f7f" stroke="#123" stroke-width="1.5"/>
<text x="1758" y="678" font-size="11" font-weight="bold" text-anchor="middle" fill="#fff">PC</text>
<text x="1758" y="712" font-size="12" font-weight="600" text-anchor="middle" fill="#111">VLN 20 FCLTY(1)</text>
<text x="1758" y="726" font-size="10" text-anchor="middle" fill="#444">10.40.20.21</text>
</svg>